<svg version="1.1" id="Layer_1" xmlns="http://www.w3.org/2000/svg" xmlns:xlink="http://www.w3.org/1999/xlink"
	 viewBox="0 0 1618 1249" xml:space="preserve">
<style type="text/css">
	.st0{fill:#FFFFFF;stroke:#000000;stroke-width:3;stroke-miterlimit:10;}
	.st1{fill:#FFFFFF;}
	.st2{fill:#88AEFF;}
	.st3{fill:#FF7E7E;}
	.st4{fill:#A8FFBE;}
	.st5{fill:#FFB57E;}
	.st6{fill:#D6BEFF;}
	.st7{fill:#FFE57E;}
	.st8{fill:none;stroke:#000000;stroke-width:2;stroke-miterlimit:10;}
	.st9{fill:none;}
	.st10{font-family:'ArialRoundedMTBold';}
	.st11{font-size:18px;}
	.st12{font-family:'LucidaSans-Demi';}
	.st13{font-size:72px;}
	.st14{font-size:30px;}
	.st15{font-size:25px;}
	.st16{font-size:22px;}
	.st17{font-size:28px;}
	.st18{font-size:26px;}
	.st19{font-size:16px;}
	.st20{font-size:20px;}
	.st21{font-size:24px;}
	.st22{font-size:14px;}
	.st23{font-size:12px;}
</style>
<g id="地区">
	<rect x="276.5" y="637.9" class="st9" width="154" height="49"/>
	<path id="UK" data-country="UK" class="st0" d="M558.5,616.4V706c0,1.7-1.3,3-3,3H476c-1.7,0-3-1.3-3-3V460.5c0-3.1,4.2-4.2,5.7-1.4L558.2,615
		C558.4,615.5,558.5,616,558.5,616.4z"/>
	<path id="UK_00000096773038719015062670000004004288675227892897_" data-country="UK" class="st0" d="M405.3,540h36.9c1.7,0,3,1.3,3,3v36.8
		c0,1.7-1.3,3-3,3h-14.6c-1,0-2-0.5-2.6-1.4l-22.4-36.8C401.5,542.6,403,540,405.3,540z"/>
	<path id="Ireland" data-country="Ireland" class="st0" d="M349.4,644.3l48.2-99.3c1-2.1,4-2.3,5.3-0.2l22.3,36.7c0.5,0.9,1.5,1.4,2.6,1.4h12.9
		c2.2,0,3.6,2.3,2.7,4.3l-27.9,59.7c-0.5,1-1.5,1.7-2.7,1.7h-60.5C349.9,648.6,348.5,646.3,349.4,644.3z"/>
	<path id="France" class="st0" d="M683.5,982.5h-207c-1.7,0-3-1.3-3-3v-221c0-1.7,1.3-3,3-3h207c1.7,0,3,1.3,3,3v221
		C686.5,981.2,685.2,982.5,683.5,982.5z"/>
	<path id="Belgium" class="st0" d="M683.5,774.5h-79c-1.7,0-3-1.3-3-3v-63c0-1.7,1.3-3,3-3h79c1.7,0,3,1.3,3,3v63
		C686.5,773.2,685.2,774.5,683.5,774.5z"/>
	<path id="Netherlands" class="st0" d="M683.5,642.5h-43c-1.7,0-3,1.3-3,3v73c0,1.7,1.3,3,3,3h43c1.7,0,3-1.3,3-3v-73
		C686.5,643.8,685.2,642.5,683.5,642.5z"/>
	<path id="Spain" class="st0" d="M577.5,1198.5h-221c-1.7,0-3-1.3-3-3v-210c0-1.7,1.3-3,3-3h221c1.7,0,3,1.3,3,3v210
		C580.5,1197.2,579.2,1198.5,577.5,1198.5z"/>
	<path id="Andorra" class="st0" d="M542.5,1001.5h-42c-1.7,0-3-1.3-3-3v-33c0-1.7,1.3-3,3-3h42c1.7,0,3,1.3,3,3v33
		C545.5,1000.2,544.2,1001.5,542.5,1001.5z"/>
	<path id="Portugal" class="st0" d="M415.5,1198.5h-59c-1.7,0-3-1.3-3-3v-125c0-1.7,1.3-3,3-3h59c1.7,0,3,1.3,3,3v125
		C418.5,1197.2,417.2,1198.5,415.5,1198.5z"/>
	<path id="Austria" class="st0" d="M764.5,767.5h152c1.7,0,3,1.3,3,3v104c0,1.7-1.3,3-3,3h-152c-1.7,0-3-1.3-3-3v-104
		C761.5,768.8,762.8,767.5,764.5,767.5z"/>
	<path id="Germany" class="st0" d="M845.5,842.5h-156c-1.7,0-3-1.3-3-3v-212c0-1.7,1.3-3,3-3h156c1.7,0,3,1.3,3,3v212
		C848.5,841.2,847.2,842.5,845.5,842.5z"/>
	<path id="Luxembourg" class="st0" d="M707.5,794.5h-42c-1.7,0-3-1.3-3-3v-33c0-1.7,1.3-3,3-3h42c1.7,0,3,1.3,3,3v33
		C710.5,793.2,709.2,794.5,707.5,794.5z"/>
	<path id="Switzerland" class="st0" d="M758.5,898.5h-100c-1.7,0-3-1.3-3-3v-50c0-1.7,1.3-3,3-3h100c1.7,0,3,1.3,3,3v50
		C761.5,897.2,760.2,898.5,758.5,898.5z"/>
	<path id="Italy" class="st0" d="M689.5,898.5h69c1.7,0,3-1.3,3-3v-15c0-1.7,1.3-3,3-3H816c1.7,0,3,1.3,3,3v44.9
		c0,0.7,0.2,1.4,0.7,1.9L949.4,1084c1.1,1.3,0.8,3.3-0.6,4.4L828,1174.1c-2.4,1.7-1.2,5.4,1.7,5.4h86.5c2.5,0,3.9-2.9,2.3-4.9
		l-156.1-191c-0.6-0.7-1.4-1.1-2.3-1.1h-70.6c-1.7,0-3-1.3-3-3v-78C686.5,899.8,687.8,898.5,689.5,898.5z"/>
	<path id="Slovenia" class="st0" d="M875.1,926.5H822c-1.7,0-3-1.3-3-3v-43c0-1.7,1.3-3,3-3h90.9c2.6,0,4,3,2.2,5l-37.7,43
		C876.8,926.1,876,926.5,875.1,926.5z"/>
	<path id="Croatia" class="st0" d="M928.8,981.4l-50.4-53c-1.1-1.1-1.1-2.9-0.1-4l40.3-45.9c0.6-0.7,1.4-1,2.2-1h39.6
		c1.7,0,3,1.3,3,3v26.9c0,1.7-1.3,3-3,3H926c-1.8,0-3.3,1.7-3,3.5l10.8,65C934.4,981.8,930.8,983.6,928.8,981.4z"/>
	<path id="Bosnia_and_Herzegovina" class="st0" d="M935.1,986l-12-72.1c-0.3-1.8,1.1-3.5,3-3.5h34.5c1.7,0,3,1.3,3,3v72.1
		c0,1.7-1.3,3-3,3H938C936.6,988.5,935.3,987.4,935.1,986z"/>
	<path id="Denmark_00000152978937185391522830000000982450071633676435_" class="st0" d="M762.5,624.5h-49c-1.7,0-3-1.3-3-3v-102
		c0-1.7,1.3-3,3-3h49c1.7,0,3,1.3,3,3v102C765.5,623.2,764.2,624.5,762.5,624.5z"/>
	<path id="Denmark" class="st0" d="M805.5,601.5h-20c-1.7,0-3-1.3-3-3v-31c0-1.7,1.3-3,3-3h20c1.7,0,3,1.3,3,3v31
		C808.5,600.2,807.2,601.5,805.5,601.5z"/>
	<path id="Norway" class="st0" d="M933.5,451.5h-197c-1.7,0-3-1.3-3-3v-373c0-1.7,1.3-3,3-3h197c1.7,0,3,1.3,3,3v373
		C936.5,450.2,935.2,451.5,933.5,451.5z"/>
	<path id="Sweden" class="st0" d="M933.5,506.5h-103c-1.7,0-3-1.3-3-3v-343c0-1.7,1.3-3,3-3h103c1.7,0,3,1.3,3,3v343
		C936.5,505.2,935.2,506.5,933.5,506.5z"/>
	<path id="Finland" class="st0" d="M1078.5,373.5h-139c-1.7,0-3-1.3-3-3v-252c0-1.7,1.3-3,3-3h139c1.7,0,3,1.3,3,3v252
		C1081.5,372.2,1080.2,373.5,1078.5,373.5z"/>
	<path id="Estonia" class="st0" d="M1078.5,469.5h-78c-1.7,0-3-1.3-3-3v-61c0-1.7,1.3-3,3-3h78c1.7,0,3,1.3,3,3v61
		C1081.5,468.2,1080.2,469.5,1078.5,469.5z"/>
	<path id="Ukraine" class="st0" d="M1409.5,601.5h-373c-1.7,0-3,1.3-3,3v191c0,1.7,1.3,3,3,3h373c1.7,0,3-1.3,3-3v-191
		C1412.5,602.8,1411.2,601.5,1409.5,601.5z"/>
	<path id="Latvia" class="st0" d="M1078.5,469.5h-108c-1.7,0-3,1.3-3,3v48c0,1.7,1.3,3,3,3h108c1.7,0,3-1.3,3-3v-48
		C1081.5,470.8,1080.2,469.5,1078.5,469.5z"/>
	<path id="Belarus" class="st0" d="M1192.5,523.5h-156c-1.7,0-3,1.3-3,3v137c0,1.7,1.3,3,3,3h156c1.7,0,3-1.3,3-3v-137
		C1195.5,524.8,1194.2,523.5,1192.5,523.5z"/>
	<path id="Lithuania" class="st0" d="M1061.5,511.5h-91c-1.7,0-3,1.3-3,3v44c0,1.7,1.3,3,3,3h91c1.7,0,3-1.3,3-3v-44
		C1064.5,512.8,1063.2,511.5,1061.5,511.5z"/>
	<path id="Ukraine_00000089561160207137037110000013623068993263219844_" class="st0" d="M1371.5,807.5h-60c-1.7,0-3,1.3-3,3v36
		c0,1.7,1.3,3,3,3h60c1.7,0,3-1.3,3-3v-36C1374.5,808.8,1373.2,807.5,1371.5,807.5z"/>
	<path id="Poland" class="st0" d="M1030.5,749.5h-179c-1.7,0-3-1.3-3-3v-182c0-1.7,1.3-3,3-3h179c1.7,0,3,1.3,3,3v182
		C1033.5,748.2,1032.2,749.5,1030.5,749.5z"/>
	<path id="Czechia" class="st0" d="M916.5,767.5h-95c-1.7,0-3-1.3-3-3v-50c0-1.7,1.3-3,3-3h95c1.7,0,3,1.3,3,3v50
		C919.5,766.2,918.2,767.5,916.5,767.5z"/>
	<path id="Slovakia" class="st0" d="M1030.5,749.5h-108c-1.7,0-3,1.3-3,3v30c0,1.7,1.3,3,3,3h108c1.7,0,3-1.3,3-3v-30
		C1033.5,750.8,1032.2,749.5,1030.5,749.5z"/>
	<path id="Hungary" class="st0" d="M1030.5,877.5h-123c-1.7,0-3-1.3-3-3v-86c0-1.7,1.3-3,3-3h123c1.7,0,3,1.3,3,3v86
		C1033.5,876.2,1032.2,877.5,1030.5,877.5z"/>
	<path id="Serbia" class="st0" d="M1068.5,1001.5h-102c-1.7,0-3-1.3-3-3v-118c0-1.7,1.3-3,3-3h102c1.7,0,3,1.3,3,3v118
		C1071.5,1000.2,1070.2,1001.5,1068.5,1001.5z"/>
	<path id="Montenegro" class="st0" d="M994.5,1001.5h-40c-1.7,0-3-1.3-3-3v-26c0-1.7,1.3-3,3-3h40c1.7,0,3,1.3,3,3v26
		C997.5,1000.2,996.2,1001.5,994.5,1001.5z"/>
	<path id="Kosovo" class="st0" d="M1000.5,969.5h30c1.7,0,3,1.3,3,3v26c0,1.7-1.3,3-3,3h-30c-1.7,0-3-1.3-3-3v-26
		C997.5,970.8,998.8,969.5,1000.5,969.5z"/>
	<path id="Greece" class="st0" d="M1036.5,1001.5h134.6c1.7,0,3,1.3,3,3v14.4c0,1-0.5,2-1.4,2.5l-78.4,50.3c-1.5,1-1.8,3-0.7,4.4
		l46.4,58.4c1,1.3,0.8,3.1-0.4,4.1l-41.7,35.9c-1.3,1.1-3.2,0.9-4.3-0.4l-59.4-72.8c-0.4-0.5-0.7-1.2-0.7-1.9v-59.9v-35
		C1033.5,1002.8,1034.8,1001.5,1036.5,1001.5z"/>
	<path id="North_Macedonia" class="st0" d="M1036.5,1039.5h32c1.7,0,3-1.3,3-3v-51c0-1.7-1.3-3-3-3h-32c-1.7,0-3,1.3-3,3v51
		C1033.5,1038.2,1034.8,1039.5,1036.5,1039.5z"/>
	<path id="Albania" class="st0" d="M1030.5,1001.5h-40c-1.7,0-3,1.3-3,3v70c0,1.7,1.3,3,3,3h40c1.7,0,3-1.3,3-3v-70
		C1033.5,1002.8,1032.2,1001.5,1030.5,1001.5z"/>
	<path id="France_00000062891810610749560170000006346880724257285053_" class="st0" d="M742.5,1043.5h-21c-1.7,0-3-1.3-3-3v-40
		c0-1.7,1.3-3,3-3h21c1.7,0,3,1.3,3,3v40C745.5,1042.2,744.2,1043.5,742.5,1043.5z"/>
	<path id="Italy_00000107564510811685660580000015027859580549180053_" class="st0" d="M746.5,1132.5h-35c-1.7,0-3-1.3-3-3v-63
		c0-1.7,1.3-3,3-3h35c1.7,0,3,1.3,3,3v63C749.5,1131.2,748.2,1132.5,746.5,1132.5z"/>
	<path id="Bulgaria" class="st0" d="M1223.5,1001.5h-149c-1.7,0-3-1.3-3-3v-73c0-1.7,1.3-3,3-3h149c1.7,0,3,1.3,3,3v73
		C1226.5,1000.2,1225.2,1001.5,1223.5,1001.5z"/>
	<path id="Romania" class="st0" d="M1223.5,922.5h-187c-1.7,0-3-1.3-3-3v-118c0-1.7,1.3-3,3-3h187c1.7,0,3,1.3,3,3v118
		C1226.5,921.2,1225.2,922.5,1223.5,922.5z"/>
	<path id="Moldova" class="st0" d="M1223.5,845.5h-66c-1.7,0-3-1.3-3-3v-69c0-1.7,1.3-3,3-3h66c1.7,0,3,1.3,3,3v69
		C1226.5,844.2,1225.2,845.5,1223.5,845.5z"/>
	<path id="Liechtenstein" class="st0" d="M779.5,877.5h-42c-1.7,0-3-1.3-3-3v-29c0-1.7,1.3-3,3-3h42c1.7,0,3,1.3,3,3v29
		C782.5,876.2,781.2,877.5,779.5,877.5z"/>
	<path id="Turkey" class="st0" d="M1174.1,1004.5v54.4c0,2.8,3.6,4.1,5.3,1.9l46.4-58.4c0.4-0.5,0.7-1.2,0.7-1.9v-45
		c0-1.7,1.3-3,3-3h331c1.7,0,3,1.3,3,3v204c0,1.7-1.3,3-3,3l-331,0.7c-1.7,0-3-1.3-3-3v-155.7c0-1.7-1.3-3-3-3h-46.4
		C1175.4,1001.5,1174.1,1002.8,1174.1,1004.5z"/>
	<path id="Cyprus" class="st0" d="M1384.2,1220.5h-26.7c-1.7,0-3-1.3-3-3v-8.1c0-1.1,0.7-2.2,1.7-2.7l50.2-24.6
		c2.8-1.4,5.6,1.9,3.8,4.4l-23.4,32.7C1386.1,1220,1385.2,1220.5,1384.2,1220.5z"/>
	<path id="Vantican_City" class="st0" d="M832.5,1058.5h-42c-1.7,0-3-1.3-3-3v-33c0-1.7,1.3-3,3-3h42c1.7,0,3,1.3,3,3v33
		C835.5,1057.2,834.2,1058.5,832.5,1058.5z"/>
	<path id="San_Marino" class="st0" d="M869.5,992.5h-42c-1.7,0-3-1.3-3-3v-33c0-1.7,1.3-3,3-3h42c1.7,0,3,1.3,3,3v33
		C872.5,991.2,871.2,992.5,869.5,992.5z"/>
	<path id="Iceland" class="st0" d="M399.5,269.5h-108c-1.7,0-3-1.3-3-3v-66c0-1.7,1.3-3,3-3h108c1.7,0,3,1.3,3,3v66
		C402.5,268.2,401.2,269.5,399.5,269.5z"/>
	<path id="Greece_00000039120318528496050390000001722774461469531296_" class="st0" d="M1219.5,1222.5h-77c-1.7,0-3-1.3-3-3v-8
		c0-1.7,1.3-3,3-3h77c1.7,0,3,1.3,3,3v8C1222.5,1221.2,1221.2,1222.5,1219.5,1222.5z"/>
	<path id="Georgia" class="st0" d="M1498.5,952.5h-83c-1.7,0-3-1.3-3-3v-86c0-1.7,1.3-3,3-3h83c1.7,0,3,1.3,3,3v86
		C1501.5,951.2,1500.2,952.5,1498.5,952.5z"/>
	<path id="Azerbaijan" class="st0" d="M1504.5,952.5h56c1.7,0,3-1.3,3-3v-86c0-1.7-1.3-3-3-3h-56c-1.7,0-3,1.3-3,3v86
		C1501.5,951.2,1502.8,952.5,1504.5,952.5z"/>
	<path id="Armenia" class="st0" d="M1514.5,952.5h-67c-1.7,0-3-1.3-3-3v-40c0-1.7,1.3-3,3-3h67c1.7,0,3,1.3,3,3v40
		C1517.5,951.2,1516.2,952.5,1514.5,952.5z"/>
	<path id="Greenland" class="st0" d="M381.5,14.5h-362c-1.7,0-3,1.3-3,3v110c0,1.7,1.3,3,3,3h362c1.7,0,3-1.3,3-3v-110
		C384.5,15.8,383.2,14.5,381.5,14.5z"/>
	<g id="Russia_00000114044153275607347460000015326427561664358548_">
		<path id="Russia" class="st0" d="M1195.5,598.5v-72c0-1.7-1.3-3-3-3h-108c-1.7,0-3-1.3-3-3v-402c0-1.7-1.3-3-3-3h-139
			c-1.7,0-3-1.3-3-3V38.3c0-1.7,1.4-3,3-3l621,4.2c1.7,0,3,1.3,3,3v815c0,1.7-1.3,3-3,3h-145c-1.7,0-3-1.3-3-3v-253c0-1.7-1.3-3-3-3
			h-211C1196.8,601.5,1195.5,600.2,1195.5,598.5z"/>
		<path id="Russia_00000006694109900938651660000004983022586525839035_" class="st0" d="M1006.5,582.5h-46c-1.7,0-3-1.3-3-3v-26
			c0-1.7,1.3-3,3-3h46c1.7,0,3,1.3,3,3v26C1009.5,581.2,1008.2,582.5,1006.5,582.5z"/>
	</g>
	<path id="Monaco" class="st0" d="M666.4,998.9h-42c-1.7,0-3-1.3-3-3v-33c0-1.7,1.3-3,3-3h42c1.7,0,3,1.3,3,3v33
		C669.4,997.5,668.1,998.9,666.4,998.9z"/>
	<path id="Malta" class="st0" d="M883.8,1225.7l-9.8,3.7c-1,0.4-2.1,0.2-2.9-0.4l-13.9-10.7c-2.6-2-0.5-6.2,2.7-5.3l23.7,7
		C886.4,1220.8,886.5,1224.6,883.8,1225.7z"/>
</g>
	<text x="308" y="672" data-country-name="Ireland"></text>
	<text x="494" y="654" data-country-name="UK"></text>
<rect x="938.5" y="962.9" class="st9" width="154" height="49"/>
</svg>