<?xml version="1.0" encoding="UTF-8" standalone="no"?>
<svg
    xmlns="http://www.w3.org/2000/svg"
    width="794.14532"
    height="500.89996"
    viewBox="0 0 210.11759 132.52977"
    version="1.1"
    id="svg8">
  <style
      id="style2">
    .country {
    display:inline;
    fill:none;
    stroke:#000000;
    stroke-width:1;
    stroke-linecap:round;
    stroke-linejoin:round;
    stroke-miterlimit:4;
    stroke-dasharray:none;
    stroke-opacity:1;
    }
    .state {
    fill:none;
    stroke:#000000;
    stroke-width:0.264583px;
    stroke-linecap:butt;
    stroke-linejoin:miter;
    stroke-opacity:1;
    cursor: pointer;
    }
    text {
    pointer-events: none;
    }
  </style>
  <g
      id="layer8"
      transform="translate(3.2079022,0.10583332)">
    <path
        class="country"
        d="M 17.264058,103.4902 V 77.999485 L 30.475373,70.371929 6.4161081,56.481306 V 45.368807 L 22.455618,36.108392 36.891177,44.442766 H 68.970198 L 97.841316,27.774018 h 16.039514 l 12.60039,7.633321 16.27072,-9.485404 28.87112,16.668748 h 38.49483 L 197.28628,64.81568 h -9.62371 v 20.372914 h -51.32643 l -19.24741,11.112498 -12.83161,7.408328 -49.722481,-28.707283 -17.643462,10.186457 3e-6,18.520826 z"
        id="path72"
        transform="translate(-6.4161081,-23.14381)"/>
    <path
        class="state"
        d="M 30.475069,21.298956 16.03951,12.964582 0,22.224997 v 11.112499 l 30.475069,-1e-6 z"
        id="path941"
        data-country="Oral"/>
    <path
        class="state"
        d="m 0,33.337496 24.059265,13.890623 h 6.415804 V 33.337495 Z"
        id="path943"
        data-country="Atyrau"/>
    <path
        class="state"
        d="M 24.059265,47.228119 10.84795,54.855675 v 25.490716 l 19.627119,0.219224 V 47.228119 Z"
        id="path945"
        data-country="Aktau"/>
    <path
        class="state"
        d="M 30.475069,62.044784 62.55409,43.523953 V 21.298956 H 30.475069 Z"
        id="path939"
        data-country="Aktobe"/>
    <path
        class="state"
        d="M 62.55409,43.523953 V 21.298956 L 91.425208,4.6302078 V 26.855205 Z"
        id="path967"
        data-country="Qostanai"/>
    <path
        class="state"
        d="M 91.425208,4.6302077 H 107.46472 L 120.06511,12.263529 91.425208,12.03854 Z"
        id="path971"
        data-country="Petropavl"/>
    <path
        class="state"
        d="M 91.425208,12.03854 V 26.855205 H 120.29633 L 120.06511,12.263529 Z"
        id="path973"
        data-country="Astana"/>
    <path
        class="state"
        d="M 65.761992,41.67187 91.425208,26.855205 H 120.29633 V 41.67187 Z"
        id="path963"
        data-country="Ulytau"/>
    <path
        class="state"
        d="m 120.06511,12.263529 0.23122,7.183344 h 44.91062 L 136.33584,2.7781246 Z"
        id="path979"
        data-country="Pavlodar"/>
    <path
        class="state"
        d="m 120.29633,19.446873 h 35.28692 V 41.67187 h -35.28692 z"
        id="path975"
        data-country="Karaganda"/>
    <path
        class="state"
        d="M 181.24646,19.446873 V 41.67187 H 155.58325 V 19.446873 Z"
        id="path961"
        data-country="Abai"/>
    <path
        class="state"
        d="M 181.24646,41.67187 V 19.446873 h 22.45532 L 190.87017,41.67187 Z"
        id="path955"
        data-country="Oskemen"/>
    <path
        class="state"
        d="M 48.11853,51.858327 65.761992,41.67187 h 25.663216 v 35.189579 z"
        id="path947"
        data-country="Qyzylorda"/>
    <path
        class="state"
        d="M 91.425208,66.78535 V 41.67187 h 22.455312 l 0,25.125514 z"
        id="path949"
        data-country="Turkistan"/>
    <path
        class="state"
        d="m 91.425207,66.785349 22.455313,0.01204 v 4.507814 L 97.841014,80.56562 91.425207,76.861454 Z"
        id="path110"
        data-country="Shymkent"/>
    <path
        class="state"
        d="M 113.88052,71.305199 V 41.67187 h 16.03951 v 20.372914 z"
        id="path951"
        data-country="Jambyl"/>
    <path
        class="state"
        d="m 129.92003,41.67187 9.62252,-3.55e-4 v 12.964471 h 41.70237 l 0.002,7.408798 h -51.32643 z"
        id="path953"
        data-country="Almaty"/>
    <path
        class="state"
        d="m 139.54255,41.671515 41.70391,3.55e-4 -0.002,12.964116 h -41.70237 z"
        id="path957"
        data-country="Jetisu" />
    <text
        xml:space="preserve"
        style="font-size:4.7625px;line-height:1.25;font-family:sans-serif;stroke-width:0.264583"
        x="149.32948"
        y="59.636864"
        id="text156"
        data-country-name="Almaty">Almaty</text>
    <text
        xml:space="preserve"
        style="font-size:3.70417px;line-height:1.25;font-family:sans-serif;stroke-width:0.264583"
        x="149.65355"
        y="49.566292"
        id="text160"
        data-country-name="Jetisu">Taldykorgan</text>
    <text
        xml:space="preserve"
        style="font-size:3.70417px;line-height:1.25;font-family:sans-serif;stroke-width:0.264583"
        x="117.08842"
        y="54.636452"
        id="text164"
        data-country-name="Jambyl">Taraz</text>
    <text
        xml:space="preserve"
        style="font-size:3.70417px;line-height:1.25;font-family:sans-serif;stroke-width:0.264583"
        x="92.608627"
        y="70.634193"
        id="text168"
        data-country-name="Shymkent">Shymkent</text>
    <text
        xml:space="preserve"
        style="font-size:3.70417px;line-height:1.25;font-family:sans-serif;stroke-width:0.264583"
        x="66.150711"
        y="54.914368"
        id="text172"
        data-country-name="Qyzylorda">Kyzylorda</text>
    <text
        xml:space="preserve"
        style="font-size:3.70417px;line-height:1.25;font-family:sans-serif;stroke-width:0.264583"
        x="10.095293"
        y="26.518934"
        id="text178"
        data-country-name="Oral">Oral</text>
    <text
        xml:space="preserve"
        style="font-size:3.70417px;line-height:1.25;font-family:sans-serif;stroke-width:0.264583"
        x="40.786137"
        y="26.92939"
        id="text182"
        data-country-name="Aktobe">Aktobe</text>
    <text
        xml:space="preserve"
        style="font-size:3.70417px;line-height:1.25;font-family:sans-serif;stroke-width:0.264583"
        x="67.680771"
        y="26.386265"
        id="text186"
        data-country-name="Qostanai">Kostanay</text>
    <text
        xml:space="preserve"
        style="font-size:2.64583px;line-height:1.25;font-family:sans-serif;stroke-width:0.264583"
        x="92.552551"
        y="10.345179"
        data-country-name="Petropavl"
        id="text190">Petropavlovsk</text>
    <text
        xml:space="preserve"
        style="font-size:4.23333px;line-height:1.25;font-family:sans-serif;stroke-width:0.264583"
        x="98.871773"
        y="20.877205"
        id="text194"
        data-country-name="Astana">Astana</text>
    <text
        xml:space="preserve"
        style="font-size:3.70417px;line-height:1.25;font-family:sans-serif;stroke-width:0.264583"
        x="128.32233"
        y="31.516411"
        id="text198"
        data-country-name="Karaganda">Karaganda</text>
    <text
        xml:space="preserve"
        style="font-size:3.70417px;line-height:1.25;font-family:sans-serif;stroke-width:0.264583"
        x="129.58264"
        y="15.361569"
        id="text202"
        data-country-name="Pavlodar">Pavlodar</text>
    <text
        xml:space="preserve"
        style="font-size:3.70417px;line-height:1.25;font-family:sans-serif;stroke-width:0.264583"
        x="96.279266"
        y="36.351185"
        id="text206"
        data-country-name="Ulytau">Ulytau</text>
    <text
        xml:space="preserve"
        style="font-size:3.70417px;line-height:1.25;font-family:sans-serif;stroke-width:0.264583"
        x="161.73987"
        y="31.652277"
        id="text210"
        data-country-name="Abai">Semey</text>
    <text
        xml:space="preserve"
        style="font-size:3.175px;line-height:1.25;font-family:sans-serif;stroke-width:0.264583"
        x="59.659893"
        y="181.06601"
        id="text214-7"
        transform="rotate(-60)"
        data-country-name="Oskemen"/>
    <text
        xml:space="preserve"
        style="font-size:3.175px;line-height:1.25;font-family:sans-serif;stroke-width:0.264583"
        x="59.990509"
        y="184.50539"
        id="text214"
        transform="rotate(-60)"
        data-country-name="Oskemen">Oskeman</text>
    <text
        xml:space="preserve"
        style="font-size:3.70417px;line-height:1.25;font-family:sans-serif;stroke-width:0.264583"
        x="17.046024"
        y="41.050087"
        id="text218"
        data-country-name="Atyrau">Atyrau</text>
    <text
        xml:space="preserve"
        style="font-size:3.70417px;line-height:1.25;font-family:sans-serif;stroke-width:0.264583"
        x="15.911805"
        y="65.030701"
        id="text222"
        data-country-name="Aktau">Aktau</text>
    <text
        xml:space="preserve"
        style="font-size:3.70417px;line-height:1.25;font-family:sans-serif;stroke-width:0.264583"
        x="93.858627"
        y="54.361485"
        id="text168-1"
        data-country-name="Turkistan">Turkistan</text>
  </g>
  <g
      id="layer7"
      transform="translate(3.2079022,0.10583332)">
    <path
        class="country"
        d="m 97.841316,140.75109 v -14.81667 l -28.871118,-16.66875 -9.623706,1.85209 -1.603951,-8.33438 -6.415804,-3.704163 -8.019756,4.630203 H 36.891177 V 85.188594 l 17.643462,-10.186457 49.722481,28.707283 22.45531,-12.964577 -6.4158,11.112497 h 9.62371 l 11.22765,6.48229 -9.6237,5.55625 h -12.83161 v -9.26041 l -14.43556,25.00312 6.4158,3.70416 v 7.40834 z"
        id="path54"
        transform="translate(-6.4161081,-23.14381)"/>
    <path
        class="state"
        d="M 30.475069,80.565615 V 62.044784 L 48.11853,51.858327 64.158041,61.118742 52.930383,80.565615 44.910628,75.935407 36.890873,80.565615 Z"
        id="path92"
        data-country="Karakalpakstan"/>
    <path
        class="state"
        d="M 64.158041,61.118742 91.425208,76.861449 85.009404,87.973947 57.742237,72.231241 Z"
        id="path106"
        data-country="Navoiy"/>
    <path
        class="state"
        d="M 85.009404,87.973947 57.742237,72.231241 52.930383,80.565615 80.197551,96.308321 Z"
        id="path108"
        data-country="Buxoro"/>
    <path
        class="state"
        d="m 51.326432,79.639573 11.227659,6.482292 -9.623708,1.852082 z"
        id="path1000"
        data-country="Xorazm"/>
    <path
        class="state"
        d="M 91.425208,76.861449 109.06867,87.047906 104.25682,95.38228 86.613355,85.195823 Z"
        id="path104"
        data-country="Jizzax"/>
    <path
        class="state"
        d="m 86.613355,85.195823 -3.207902,5.556249 17.643457,10.186458 3.20791,-5.55625 z"
        id="path112"
        data-country="Samarqand"/>
    <path
        class="state"
        d="m 80.197551,96.308322 3.207903,-5.556249 17.643456,10.186457 -3.207896,5.55625 z"
        id="path988"
        data-country="Qashqadaryo"/>
    <path
        class="state"
        d="m 104.25682,110.19894 v 7.40834 H 91.425208 v -14.81667 z"
        id="path94"
        data-country="Surxondaryo"/>
    <path
        class="state"
        d="m 104.25682,76.861449 8.01975,4.630208 -3.2079,5.556249 -11.227656,-6.482291 z"
        id="path4538"
        data-country="Sirdaryo"/>
    <path
        class="state"
        d="m 120.29633,67.601033 -8.01976,13.890623 -8.01975,-4.630207 z"
        id="path102"
        data-country="Toshkent"/>
    <path
        class="state"
        d="m 123.50423,86.121863 h -11.22766 v -4.630207 l 1.60395,-2.778124 h 9.62371 z"
        id="path100"
        data-country="Namangan"/>
    <path
        class="state"
        d="m 112.27657,86.121863 20.85136,10e-7 -8.01975,4.630208 h -12.83161 z"
        id="path96"
        data-country="Fergana"/>
    <path
        class="state"
        d="m 133.12793,86.121864 1.60396,-0.926041 -11.22766,-6.482291 v 7.408332 z"
        id="path98"
        data-country="Andijon"/>
    <text
        xml:space="preserve"
        style="font-size:2.38125px;line-height:1.25;font-family:sans-serif;stroke-width:0.264583"
        x="54.192794"
        y="121.48009"
        id="text152"
        transform="rotate(-30)"
        data-country-name="Toshkent">Toshkent</text>
    <text
        xml:space="preserve"
        style="font-size:1.85208px;line-height:1.25;font-family:sans-serif;stroke-width:0.264583"
        x="113.177"
        y="82.854141"
        id="text226"
        data-country-name="Namangan">Namangan</text>
    <text
        xml:space="preserve"
        style="font-size:1.85208px;line-height:1.25;font-family:sans-serif;stroke-width:0.264583"
        x="123.86973"
        y="85.186325"
        id="text230"
        data-country-name="Andijon">Andijon</text>
    <text
        xml:space="preserve"
        style="font-size:2.64583px;line-height:1.25;font-family:sans-serif;stroke-width:0.264583"
        x="113.5356"
        y="89.173347"
        id="text234"
        data-country-name="Fergana">Fergana</text>
    <text
        xml:space="preserve"
        style="font-size:3.70417px;line-height:1.25;font-family:sans-serif;stroke-width:0.264583"
        x="39.730389"
        y="68.271332"
        id="text238"
        data-country-name="Karakalpakstan">Nukus</text>
    <text
        xml:space="preserve"
        style="font-size:3.70417px;line-height:1.25;font-family:sans-serif;stroke-width:0.264583"
        x="95.656387"
        y="28.545115"
        id="text242"
        transform="rotate(30)"
        data-country-name="Navoiy">Navoiy</text>
    <text
        xml:space="preserve"
        style="font-size:3.70417px;line-height:1.25;font-family:sans-serif;stroke-width:0.264583"
        x="94.700104"
        y="39.939785"
        id="text246"
        data-country-name="Buxoro"
        transform="rotate(30)">Buxoro</text>
    <text
        xml:space="preserve"
        style="font-size:3.70417px;line-height:1.25;font-family:sans-serif;stroke-width:0.264583"
        x="121.75923"
        y="41.388779"
        id="text250"
        data-country-name="Qashqadaryo"
        transform="rotate(30)">Karshi</text>
    <text
        xml:space="preserve"
        style="font-size:3.175px;line-height:1.25;font-family:sans-serif;stroke-width:0.264583"
        x="118.65369"
        y="34.907219"
        id="text254"
        data-country-name="Samarqand"
        transform="rotate(30)">Samarqand</text>
    <text
        xml:space="preserve"
        style="font-size:2.64583px;line-height:1.25;font-family:sans-serif;stroke-width:0.264583"
        x="34.861767"
        y="96.027275"
        id="text258"
        data-country-name="Xorazm"
        transform="rotate(-11.351367)">Khiva</text>
    <text
        xml:space="preserve"
        style="font-size:3.70417px;line-height:1.25;font-family:sans-serif;stroke-width:0.264583"
        x="122.07775"
        y="27.076933"
        id="text266"
        data-country-name="Jizzax"
        transform="rotate(30)">Jizzax</text>
    <text
        xml:space="preserve"
        style="font-size:3.175px;line-height:1.25;font-family:sans-serif;stroke-width:0.264583"
        x="92.227966"
        y="116.07154"
        id="text270"
        data-country-name="Surxondaryo">Termez</text>
    <text
        xml:space="preserve"
        style="font-size:2.64583px;line-height:1.25;font-family:sans-serif;stroke-width:0.264583"
        x="126.66973"
        y="20.061163"
        id="text274"
        data-country-name="Sirdaryo"
        transform="rotate(30)">Gulistan</text>
  </g>
  <g
      id="layer6"
      transform="translate(3.2079022,0.10583332)">
    <path
        class="country"
        d="m 120.29663,101.85734 6.4158,-11.112497 9.62371,-5.556249 51.32643,-2e-6 -20.85136,12.038542 -3.2079,-1.852083 -11.22766,6.482289 -11.22766,19.44687 h -22.45531 v -7.40833 h 12.83161 l 9.6237,-5.55625 -11.22765,-6.48229 z"
        id="path66"
        transform="translate(-6.4161081,-23.14381)"/>
    <path
        class="state"
        d="m 120.29633,67.601033 -3.20791,5.556249 h 19.24742 V 62.044784 h -6.41581 z"
        id="path75"
        data-country="Talas"/>
    <path
        class="state"
        d="m 136.33584,73.157282 h 6.4158 l 19.24741,-11.112498 h -25.66321 z"
        id="path77"
        data-country="Bishkek"/>
    <path
        class="state"
        d="m 161.99905,62.044784 19.24741,-2e-6 -20.85136,12.038542 -9.6237,-5.556249 z"
        id="path79"
        data-country="Karakol"/>
    <path
        class="state"
        d="m 117.08842,73.157282 -3.2079,5.55625 h 9.62371 l 11.22766,6.482291 8.01975,-12.038541 z"
        id="path81"
        data-country="Jalal-Abad"/>
    <path
        class="state"
        d="m 150.7714,68.527075 -8.01976,4.630207 -8.01975,12.038541 22.45531,-12.964582 z"
        id="path88"
        data-country="Naryn"/>
    <path
        class="state"
        d="m 112.27657,98.160404 v -7.408332 h 12.83161 v 7.408332 z"
        id="path84"
        data-country="Batken"/>
    <path
        class="state"
        d="m 125.10818,98.160404 9.62371,-10e-7 11.22765,-19.446871 -20.85136,12.03854 z"
        id="path86"
        data-country="Osh"/>
    <text
        xml:space="preserve"
        style="font-size:3.70417px;line-height:1.25;font-family:sans-serif;stroke-width:0.264583"
        x="128.0359"
        y="94.245316"
        id="text294"
        data-country-name="Osh">Osh</text>
    <text
        xml:space="preserve"
        style="font-size:3.175px;line-height:1.25;font-family:sans-serif;stroke-width:0.264583"
        x="86.231781"
        y="139.13126"
        id="text298"
        data-country-name="Naryn"
        transform="rotate(-30)">Naryn</text>
    <text
        xml:space="preserve"
        style="font-size:3.175px;line-height:1.25;font-family:sans-serif;stroke-width:0.264583"
        x="117.7243"
        y="76.94474"
        id="text302"
        data-country-name="Jalal-Abad">Jalal-Abad</text>
    <text
        xml:space="preserve"
        style="font-size:3.70417px;line-height:1.25;font-family:sans-serif;stroke-width:0.264583"
        x="137.22957"
        y="66.958397"
        id="text306"
        data-country-name="Bishkek">Bishkek</text>
    <text
        xml:space="preserve"
        style="font-size:3.70417px;line-height:1.25;font-family:sans-serif;stroke-width:0.264583"
        x="123.16653"
        y="70.24221"
        id="text310"
        data-country-name="Talas">Talas</text>
    <text
        xml:space="preserve"
        style="font-size:3.175px;line-height:1.25;font-family:sans-serif;stroke-width:0.264583"
        x="157.98868"
        y="67.605339"
        id="text314"
        data-country-name="Karakol">Karakol</text>
    <text
        xml:space="preserve"
        style="font-size:3.175px;line-height:1.25;font-family:sans-serif;stroke-width:0.264583"
        x="113.3617"
        y="95.665833"
        id="text318"
        data-country-name="Batken">Batken</text>
  </g>
  <g
      id="layer5"
      transform="translate(3.2079022,0.10583332)">
    <path
        class="country"
        d="m 110.67292,140.75109 6.50923,0.23053 12.73819,-7.63887 12.8316,7.40834 9.62371,-12.96458 -11.22766,-6.4823 h -22.45531 v -16.66874 l -14.43556,25.00312 6.4158,3.70416 z"
        id="path70"
        transform="translate(-6.4161081,-23.14381)"/>
    <path
        class="state"
        d="M 112.27657,81.491652 V 98.1604 l -14.435556,8.33438 z"
        id="path67"
        data-country="Sogd"/>
    <path
        class="state"
        d="m 97.841012,106.49478 6.415808,3.70416 h 19.24741 l 8.01975,-12.038536 h -19.24741 z"
        id="path71"
        data-country="Dushanbe"/>
    <path
        class="state"
        d="m 123.50423,110.19894 12.83161,7.40834 9.6237,-12.96458 -11.22765,-6.482296 h -3.20791 z"
        id="path60"
        data-country="Pamir"/>
    <path
        class="state"
        d="m 110.76604,117.83781 -6.50922,-0.23053 v -7.40834 h 19.24741 z"
        id="path64"
        data-country="Bokhtar"/>
    <text
        xml:space="preserve"
        style="font-size:2.64583px;line-height:1.25;font-family:sans-serif;stroke-width:0.264583"
        x="-34.756874"
        y="141.06697"
        id="text278"
        data-country-name="Sogd"
        transform="rotate(-60)">Khujand</text>
    <text
        xml:space="preserve"
        style="font-size:3.70417px;line-height:1.25;font-family:sans-serif;stroke-width:0.264583"
        x="105.7581"
        y="106.18661"
        id="text282"
        data-country-name="Dushanbe">Dushanbe</text>
    <text
        xml:space="preserve"
        style="font-size:3.175px;line-height:1.25;font-family:sans-serif;stroke-width:0.264583"
        x="104.94794"
        y="113.64007"
        id="text286"
        data-country-name="Bokhtar">Bokhtar</text>
    <text
        xml:space="preserve"
        style="font-size:3.175px;line-height:1.25;font-family:sans-serif;stroke-width:0.264583"
        x="128.56918"
        y="108.21201"
        id="text290"
        data-country-name="Pamir">Khorugh</text>
  </g>
  <g
      id="layer4"
      transform="translate(3.2079022,0.10583332)">
    <path
        class="country"
        d="m 17.264058,113.18906 67.74565,38.67453 6.415804,-11.1125 h 6.415804 v -14.81667 l -28.871118,-16.66875 -9.623706,1.85209 -1.603951,-8.33438 -6.415804,-3.704163 -8.019756,4.630203 -26.042923,-0.21922 z"
        id="path48"
        transform="translate(-6.4161081,-23.14381)"/>
    <path
        class="state"
        d="m 10.84795,80.346391 16.419217,0.219224 V 99.086446 L 10.84795,90.045254 Z"
        id="path123"
        data-country="Balkanabat"/>
    <path
        class="state"
        d="m 54.534334,100.01249 8.019754,-13.890627 -9.623705,1.852084 -1.603951,-8.334374 -6.415804,-3.704166 -8.019755,4.630208 h -9.623706 v 3.704166 z"
        id="path52"
        data-country="Dashoguz"/>
    <path
        class="state"
        d="M 54.534334,100.01249 48.11853,111.12499 27.267167,99.086446 V 84.269781 Z"
        id="path50"
        data-country="Ashgabat"/>
    <path
        class="state"
        d="m 85.009404,117.60728 -30.47507,-17.59479 8.019754,-13.890627 28.87112,16.668747 v 14.81667 z"
        id="path126"
        data-country="Lebap"/>
    <path
        class="state"
        d="m 78.5936,128.71978 6.415804,-11.1125 -30.47507,-17.59479 -6.415804,11.1125 z"
        id="path128"
        data-country="Mary"/>
    <text
        xml:space="preserve"
        style="font-size:3.70417px;line-height:1.25;font-family:sans-serif;stroke-width:0.264583"
        x="76.448334"
        y="53.853714"
        id="text322"
        data-country-name="Dashoguz"
        transform="rotate(30)">Dashoguz</text>
    <text
        xml:space="preserve"
        style="font-size:4.23333px;line-height:1.25;font-family:sans-serif;stroke-width:0.264583"
        x="73.502663"
        y="67.216354"
        id="text326"
        data-country-name="Ashgabat"
        transform="rotate(30)">Ashgabat</text>
    <text
        xml:space="preserve"
        style="font-size:2.64583px;line-height:1.25;font-family:sans-serif;stroke-width:0.264583"
        x="11.801233"
        y="87.657356"
        id="text330"
        data-country-name="Balkanabat">Balkanabat</text>
    <text
        xml:space="preserve"
        style="font-size:3.70417px;line-height:1.25;font-family:sans-serif;stroke-width:0.264583"
        x="108.92033"
        y="67.114838"
        id="text334"
        data-country-name="Mary"
        transform="rotate(30)">Mary</text>
    <text
        xml:space="preserve"
        style="font-size:3.70417px;line-height:1.25;font-family:sans-serif;stroke-width:0.264583"
        x="104.88825"
        y="54.109379"
        id="text338"
        data-country-name="Lebap"
        transform="rotate(30)">Turkmenabat</text>
  </g>
</svg>
